<svg width="212" height="212" viewBox="0 0 212 212" fill="none" xmlns="http://www.w3.org/2000/svg">
<g id="Group 4">
<circle id="Ellipse 2.1" cx="106" cy="106" r="106" fill="url(#paint0_linear)"/>
<g id="book-open">
<g id="Group">
<path id="Vector" d="M144.5 74.833H142.667V126.174C142.667 128.196 141.015 129.833 138.991 129.833C117.037 129.831 108.348 136.318 108.266 136.382L105.982 138.138L103.734 136.382C103.651 136.318 94.9633 129.831 73.0091 129.833C70.9851 129.833 69.3333 128.196 69.3333 126.174V74.833H67.4999C65.4741 74.833 63.8333 76.4738 63.8333 78.4997L63.8333 140.833C63.8333 142.859 65.4741 144.5 67.4999 144.5H144.5C146.526 144.5 148.167 142.859 148.167 140.833V78.4997C148.167 76.4738 146.526 74.833 144.5 74.833Z" fill="url(#paint1_linear)"/>
<path id="Vector_2" d="M104.167 73.6707C100.599 71.6779 91.5515 67.7894 74.87 67.5144C73.8488 67.4979 73 68.3357 73 69.3569V124.357C73 125.36 73.8195 126.165 74.8223 126.181C91.5313 126.449 100.593 130.343 104.167 132.337V73.6707Z" fill="url(#paint2_linear)"/>
<path id="Vector_3" d="M137.13 67.5144C120.448 67.7894 111.401 71.6779 107.833 73.6707V132.337C111.406 130.343 120.469 126.449 137.178 126.181C138.18 126.165 139 125.36 139 124.357V69.3569C139 68.3357 138.151 67.4979 137.13 67.5144Z" fill="url(#paint3_linear)"/>
</g>
</g>
</g>
<defs>
<linearGradient id="paint0_linear" x1="-192.689" y1="257.717" x2="345.643" y2="94.359" gradientUnits="userSpaceOnUse">
<stop offset="0.259668" stop-color="#25CED1"/>
<stop offset="0.624065" stop-color="#34E6E9"/>
<stop offset="1" stop-color="#6AFCFF"/>
</linearGradient>
<linearGradient id="paint1_linear" x1="106" y1="74.833" x2="106" y2="144.5" gradientUnits="userSpaceOnUse">
<stop stop-color="white"/>
<stop offset="1" stop-color="white"/>
</linearGradient>
<linearGradient id="paint2_linear" x1="88.5833" y1="67.5142" x2="88.5833" y2="132.337" gradientUnits="userSpaceOnUse">
<stop stop-color="white"/>
<stop offset="1" stop-color="white"/>
</linearGradient>
<linearGradient id="paint3_linear" x1="123.417" y1="67.5142" x2="123.417" y2="132.337" gradientUnits="userSpaceOnUse">
<stop stop-color="white"/>
<stop offset="1" stop-color="white"/>
</linearGradient>
</defs>
</svg>
